nColumns=28
nRows=73
DataType=double
version=3
OpenSimVersion=4.1
endheader
time	ground_force_1_vx	ground_force_1_vy	ground_force_1_vz	ground_force_1_px	ground_force_1_py	ground_force_1_pz	ground_force_1_mx	ground_force_1_my	ground_force_1_mz	ground_force_2_vx	ground_force_2_vy	ground_force_2_vz	ground_force_2_px	ground_force_2_py	ground_force_2_pz	ground_force_2_mx	ground_force_2_my	ground_force_2_mz	ground_force_3_vx	ground_force_3_vy	ground_force_3_vz	ground_force_3_px	ground_force_3_py	ground_force_3_pz	ground_force_3_mx	ground_force_3_my	ground_force_3_mz
3.87	-2.7602	278.497	-20.0746	-0.21585	0.006	-0.461256	0	-0.836613	0	-0.0408741	310.647	22.2257	-0.217875	0.006	-0.732128	0	1.26076	0	0	0	0	0	0	0	0	0	0
3.88	-2.69631	278.362	-20.0014	-0.215934	0.006	-0.461194	0	-0.850203	0	-0.0810775	310.81	22.2532	-0.217991	0.006	-0.732027	0	1.26289	0	0	0	0	0	0	0	0	0	0
3.89	-2.64053	278.198	-19.9956	-0.216044	0.006	-0.461312	0	-0.8587	0	-0.0633331	310.947	22.2516	-0.218169	0.006	-0.731993	0	1.26466	0	0	0	0	0	0	0	0	0	0
3.9	-2.63727	277.776	-20.0151	-0.216185	0.006	-0.4616	0	-0.854849	0	0.00363035	311.101	22.2314	-0.218219	0.006	-0.732044	0	1.26928	0	0	0	0	0	0	0	0	0	0
3.91	-2.66013	277.079	-19.9533	-0.21632	0.006	-0.461878	0	-0.855164	0	0.0227437	311.214	22.1564	-0.218273	0.006	-0.732122	0	1.2645	0	0	0	0	0	0	0	0	0	0
3.92	-2.64904	276.843	-19.9638	-0.216412	0.006	-0.461792	0	-0.867832	0	0.0566717	311.235	22.0889	-0.218477	0.006	-0.732158	0	1.2693	0	0	0	0	0	0	0	0	0	0
3.93	-2.63053	276.892	-20.0096	-0.216593	0.006	-0.46178	0	-0.865469	0	0.0821128	311.287	22.0893	-0.218716	0.006	-0.732099	0	1.28041	0	0	0	0	0	0	0	0	0	0
3.94	-2.51953	276.812	-20.0034	-0.216758	0.006	-0.46179	0	-0.861966	0	0.140038	311.502	22.0907	-0.218976	0.006	-0.732068	0	1.28583	0	0	0	0	0	0	0	0	0	0
3.95	-2.40496	276.685	-20.0077	-0.216857	0.006	-0.461732	0	-0.860611	0	0.210498	311.802	22.1003	-0.2192	0.006	-0.732066	0	1.28564	0	0	0	0	0	0	0	0	0	0
3.96	-2.29422	276.927	-20.0176	-0.216923	0.006	-0.461594	0	-0.8838	0	0.206422	312.145	22.1305	-0.219298	0.006	-0.732045	0	1.27263	0	0	0	0	0	0	0	0	0	0
3.97	-2.2853	276.992	-20.0306	-0.216981	0.006	-0.46153	0	-0.890421	0	0.222369	312.265	22.1423	-0.219508	0.006	-0.732034	0	1.26299	0	0	0	0	0	0	0	0	0	0
3.98	-2.30754	276.523	-19.9777	-0.217102	0.006	-0.461658	0	-0.872711	0	0.293125	312.337	22.1038	-0.219574	0.006	-0.731977	0	1.25785	0	0	0	0	0	0	0	0	0	0
3.99	-2.28627	276.207	-19.9309	-0.217276	0.006	-0.461836	0	-0.872315	0	0.402653	312.598	22.0594	-0.219532	0.006	-0.732039	0	1.2522	0	0	0	0	0	0	0	0	0	0
4	-2.20229	276.14	-19.9018	-0.21739	0.006	-0.461921	0	-0.885988	0	0.54388	313.008	22.0753	-0.219726	0.006	-0.732254	0	1.27875	0	0	0	0	0	0	0	0	0	0
4.01	-2.14804	275.938	-19.8549	-0.21746	0.006	-0.461888	0	-0.892457	0	0.639229	313.233	22.1405	-0.219925	0.006	-0.732379	0	1.27602	0	0	0	0	0	0	0	0	0	0
4.02	-2.16815	275.724	-19.8826	-0.217571	0.006	-0.461954	0	-0.891634	0	0.634888	313.177	22.1616	-0.220041	0.006	-0.73233	0	1.25803	0	0	0	0	0	0	0	0	0	0
4.03	-2.18716	275.638	-19.8501	-0.217688	0.006	-0.461979	0	-0.886252	0	0.600524	313.039	22.1234	-0.220164	0.006	-0.732273	0	1.26039	0	0	0	0	0	0	0	0	0	0
4.04	-2.19956	275.596	-19.7726	-0.217746	0.006	-0.461944	0	-0.872543	0	0.625364	313.106	22.1668	-0.220114	0.006	-0.73224	0	1.26587	0	0	0	0	0	0	0	0	0	0
4.05	-2.13547	275.633	-19.8208	-0.217761	0.006	-0.461905	0	-0.871627	0	0.676557	313.206	22.1871	-0.220088	0.006	-0.732221	0	1.26554	0	0	0	0	0	0	0	0	0	0
4.06	-2.15743	275.478	-19.862	-0.21787	0.006	-0.461912	0	-0.863868	0	0.669299	313.285	22.1968	-0.220034	0.006	-0.732296	0	1.25249	0	0	0	0	0	0	0	0	0	0
4.07	-2.263	275.179	-19.8463	-0.217878	0.006	-0.461934	0	-0.84483	0	0.61937	313.369	22.1913	-0.220023	0.006	-0.73227	0	1.24225	0	0	0	0	0	0	0	0	0	0
4.08	-2.27246	275.219	-19.8423	-0.217935	0.006	-0.461784	0	-0.843034	0	0.458626	313.341	22.1146	-0.220024	0.006	-0.732205	0	1.23121	0	0	0	0	0	0	0	0	0	0
4.09	-2.19263	275.334	-19.8993	-0.218012	0.006	-0.461643	0	-0.857464	0	0.338164	313.364	22.052	-0.219908	0.006	-0.732233	0	1.22499	0	0	0	0	0	0	0	0	0	0
4.1	-2.09031	275.298	-19.9578	-0.217978	0.006	-0.461685	0	-0.885301	0	0.271153	313.377	22.0402	-0.219939	0.006	-0.732241	0	1.2221	0	0	0	0	0	0	0	0	0	0
4.11	-2.08311	275.21	-19.9686	-0.217952	0.006	-0.46185	0	-0.907813	0	0.221705	313.294	22.0233	-0.22002	0.006	-0.732147	0	1.23127	0	0	0	0	0	0	0	0	0	0
4.12	-2.16453	275.191	-19.9332	-0.218021	0.006	-0.461887	0	-0.91062	0	0.323868	313.19	22.0671	-0.219886	0.006	-0.732048	0	1.25428	0	0	0	0	0	0	0	0	0	0
4.13	-2.16362	275.137	-19.9285	-0.218091	0.006	-0.462011	0	-0.922255	0	0.343401	313.289	22.0941	-0.219773	0.006	-0.732157	0	1.26106	0	0	0	0	0	0	0	0	0	0
4.14	-2.1926	275.339	-19.9165	-0.218103	0.006	-0.461818	0	-0.910257	0	0.250418	313.456	22.001	-0.219776	0.006	-0.732261	0	1.22907	0	0	0	0	0	0	0	0	0	0
4.15	-2.2368	275.426	-19.8086	-0.21817	0.006	-0.461764	0	-0.887413	0	0.217205	313.378	21.8771	-0.219792	0.006	-0.732179	0	1.21013	0	0	0	0	0	0	0	0	0	0
4.16	-2.24994	275.298	-19.7769	-0.218271	0.006	-0.461965	0	-0.893812	0	0.268075	313.209	21.89	-0.219882	0.006	-0.732083	0	1.24327	0	0	0	0	0	0	0	0	0	0
4.17	-2.12968	275.552	-19.9269	-0.218254	0.006	-0.461757	0	-0.918467	0	0.326027	313.12	21.9179	-0.219914	0.006	-0.732126	0	1.26189	0	0	0	0	0	0	0	0	0	0
4.18	-2.03536	275.809	-20	-0.218194	0.006	-0.461488	0	-0.924721	0	0.286364	313.092	21.8893	-0.220002	0.006	-0.732151	0	1.25754	0	0	0	0	0	0	0	0	0	0
4.19	-2.12537	275.792	-19.9931	-0.218175	0.006	-0.461579	0	-0.901084	0	0.286258	313.095	21.8455	-0.220028	0.006	-0.732108	0	1.23462	0	0	0	0	0	0	0	0	0	0
4.2	-2.19975	275.8	-20.024	-0.218235	0.006	-0.461732	0	-0.892261	0	0.414827	313.337	21.7886	-0.220124	0.006	-0.73213	0	1.23936	0	0	0	0	0	0	0	0	0	0
4.21	-2.21471	275.823	-20.0001	-0.218382	0.006	-0.461744	0	-0.902232	0	0.466316	313.603	21.7776	-0.220331	0.006	-0.732149	0	1.25575	0	0	0	0	0	0	0	0	0	0
4.22	-2.21597	275.721	-19.9738	-0.218447	0.006	-0.461746	0	-0.898441	0	0.416789	313.673	21.8139	-0.22037	0.006	-0.732084	0	1.25637	0	0	0	0	0	0	0	0	0	0
4.23	-2.1723	275.689	-19.9953	-0.218438	0.006	-0.461738	0	-0.884998	0	0.408342	313.708	21.8544	-0.220277	0.006	-0.732041	0	1.24542	0	0	0	0	0	0	0	0	0	0
4.24	-2.12354	275.545	-19.9787	-0.218462	0.006	-0.461765	0	-0.890438	0	0.466269	313.694	21.8096	-0.220451	0.006	-0.732101	0	1.2511	0	0	0	0	0	0	0	0	0	0
4.25	-2.24333	275.045	-19.914	-0.218479	0.006	-0.461912	0	-0.889586	0	0.592977	313.52	21.7542	-0.220605	0.006	-0.732099	0	1.27966	0	0	0	0	0	0	0	0	0	0
4.26	-2.35975	274.773	-19.8807	-0.21852	0.006	-0.46188	0	-0.888628	0	0.643226	313.406	21.7528	-0.220557	0.006	-0.732034	0	1.28931	0	0	0	0	0	0	0	0	0	0
4.27	-2.39156	274.618	-19.8425	-0.218552	0.006	-0.461789	0	-0.890718	0	0.54378	313.334	21.7828	-0.220546	0.006	-0.731894	0	1.27672	0	0	0	0	0	0	0	0	0	0
4.28	-2.32244	274.498	-19.8233	-0.218628	0.006	-0.461757	0	-0.881031	0	0.505144	313.236	21.771	-0.220602	0.006	-0.731858	0	1.26833	0	0	0	0	0	0	0	0	0	0
4.29	-2.38088	274.32	-19.8222	-0.218554	0.006	-0.461758	0	-0.86975	0	0.544961	313.279	21.775	-0.220755	0.006	-0.731939	0	1.27293	0	0	0	0	0	0	0	0	0	0
4.3	-2.49646	274.082	-19.8275	-0.218503	0.006	-0.461846	0	-0.861841	0	0.504907	313.376	21.7774	-0.22099	0.006	-0.732016	0	1.26975	0	0	0	0	0	0	0	0	0	0
4.31	-2.50782	274.076	-19.876	-0.218544	0.006	-0.461809	0	-0.852407	0	0.454634	313.413	21.7581	-0.221058	0.006	-0.731855	0	1.2712	0	0	0	0	0	0	0	0	0	0
4.32	-2.47361	274.255	-19.8695	-0.218652	0.006	-0.461717	0	-0.841926	0	0.470146	313.522	21.7373	-0.220967	0.006	-0.731782	0	1.28238	0	0	0	0	0	0	0	0	0	0
4.33	-2.37983	274.364	-19.8656	-0.218816	0.006	-0.461774	0	-0.878294	0	0.554899	313.697	21.7736	-0.220798	0.006	-0.731806	0	1.30197	0	0	0	0	0	0	0	0	0	0
4.34	-2.42505	274.265	-19.7921	-0.218967	0.006	-0.461937	0	-0.89427	0	0.620471	313.824	21.8099	-0.220862	0.006	-0.731791	0	1.31032	0	0	0	0	0	0	0	0	0	0
4.35	-2.42905	274.42	-19.73	-0.219033	0.006	-0.461917	0	-0.885844	0	0.656123	314.126	21.8497	-0.22113	0.006	-0.73176	0	1.32202	0	0	0	0	0	0	0	0	0	0
4.36	-2.33122	274.748	-19.7551	-0.219043	0.006	-0.461778	0	-0.8836	0	0.679305	314.438	21.906	-0.221184	0.006	-0.731779	0	1.33004	0	0	0	0	0	0	0	0	0	0
4.37	-2.3945	274.685	-19.7488	-0.219081	0.006	-0.461823	0	-0.87249	0	0.721986	314.554	21.9605	-0.221245	0.006	-0.731885	0	1.33612	0	0	0	0	0	0	0	0	0	0
4.38	-2.49407	274.58	-19.6868	-0.219137	0.006	-0.461886	0	-0.863408	0	0.741502	314.641	21.9665	-0.221415	0.006	-0.732039	0	1.33189	0	0	0	0	0	0	0	0	0	0
4.39	-2.51586	274.636	-19.6838	-0.219197	0.006	-0.461806	0	-0.860701	0	0.739001	314.684	21.9982	-0.221655	0.006	-0.732151	0	1.3262	0	0	0	0	0	0	0	0	0	0
4.4	-2.45237	274.696	-19.7641	-0.219306	0.006	-0.461785	0	-0.885331	0	0.77423	314.724	22.0625	-0.221779	0.006	-0.73206	0	1.31996	0	0	0	0	0	0	0	0	0	0
4.41	-2.56539	274.528	-19.6951	-0.219441	0.006	-0.46187	0	-0.883916	0	0.817189	314.66	22.0825	-0.221833	0.006	-0.731823	0	1.29519	0	0	0	0	0	0	0	0	0	0
4.42	-2.70383	274.22	-19.5409	-0.219512	0.006	-0.461962	0	-0.858509	0	0.782521	314.784	22.0953	-0.222072	0.006	-0.731936	0	1.2534	0	0	0	0	0	0	0	0	0	0
4.43	-2.78029	273.965	-19.4777	-0.219622	0.006	-0.462077	0	-0.852205	0	0.730511	315.167	22.1136	-0.222551	0.006	-0.732174	0	1.23885	0	0	0	0	0	0	0	0	0	0
4.44	-2.81538	273.933	-19.4795	-0.219699	0.006	-0.462075	0	-0.854797	0	0.714364	315.332	22.1189	-0.222777	0.006	-0.732145	0	1.23998	0	0	0	0	0	0	0	0	0	0
4.45	-2.75915	273.87	-19.4967	-0.219695	0.006	-0.462112	0	-0.862748	0	0.747597	315.381	22.1631	-0.223097	0.006	-0.732056	0	1.23696	0	0	0	0	0	0	0	0	0	0
4.46	-2.69241	273.91	-19.5105	-0.219808	0.006	-0.462125	0	-0.87032	0	0.795188	315.247	22.2323	-0.223553	0.006	-0.731864	0	1.24702	0	0	0	0	0	0	0	0	0	0
4.47	-2.64423	274.044	-19.5629	-0.219925	0.006	-0.462146	0	-0.868862	0	0.803448	315.088	22.262	-0.22363	0.006	-0.731818	0	1.24124	0	0	0	0	0	0	0	0	0	0
4.48	-2.65091	273.846	-19.5442	-0.219951	0.006	-0.462383	0	-0.860723	0	0.831935	315.072	22.2901	-0.223658	0.006	-0.731849	0	1.2444	0	0	0	0	0	0	0	0	0	0
4.49	-2.69847	273.587	-19.5317	-0.22003	0.006	-0.462489	0	-0.842047	0	0.915909	314.721	22.2625	-0.223789	0.006	-0.731736	0	1.24369	0	0	0	0	0	0	0	0	0	0
4.5	-2.79245	273.626	-19.5004	-0.220123	0.006	-0.462298	0	-0.821701	0	0.97916	314.489	22.2214	-0.223997	0.006	-0.731621	0	1.23041	0	0	0	0	0	0	0	0	0	0
4.51	-2.77742	273.668	-19.5336	-0.22025	0.006	-0.462256	0	-0.829158	0	1.04214	314.423	22.1892	-0.224304	0.006	-0.731566	0	1.24459	0	0	0	0	0	0	0	0	0	0
4.52	-2.71068	273.717	-19.6404	-0.220426	0.006	-0.462228	0	-0.820913	0	1.09085	314.576	22.1669	-0.224556	0.006	-0.731656	0	1.24947	0	0	0	0	0	0	0	0	0	0
4.53	-2.67262	273.782	-19.6512	-0.220539	0.006	-0.462244	0	-0.820796	0	1.08319	314.77	22.1454	-0.224697	0.006	-0.731654	0	1.2578	0	0	0	0	0	0	0	0	0	0
4.54	-2.53646	273.94	-19.7582	-0.220766	0.006	-0.462385	0	-0.833555	0	1.08093	314.742	22.1135	-0.224762	0.006	-0.731583	0	1.24622	0	0	0	0	0	0	0	0	0	0
4.55	-2.47052	274.221	-19.8514	-0.22097	0.006	-0.462407	0	-0.834939	0	1.08627	314.845	22.1214	-0.224806	0.006	-0.731558	0	1.22333	0	0	0	0	0	0	0	0	0	0
4.56	-2.55974	274.484	-19.8837	-0.221046	0.006	-0.462285	0	-0.822792	0	1.08631	315.104	22.1618	-0.224765	0.006	-0.731495	0	1.19691	0	0	0	0	0	0	0	0	0	0
4.57	-2.61635	274.638	-19.9211	-0.221142	0.006	-0.462236	0	-0.799802	0	1.07628	315.055	22.1714	-0.224804	0.006	-0.731432	0	1.18689	0	0	0	0	0	0	0	0	0	0
4.58	-2.51953	274.852	-19.979	-0.221227	0.006	-0.4622	0	-0.795323	0	1.08303	314.667	22.1538	-0.224992	0.006	-0.731362	0	1.19315	0	0	0	0	0	0	0	0	0	0
4.59	-2.36887	274.922	-19.9877	-0.221225	0.006	-0.462215	0	-0.823133	0	1.0781	314.377	22.1376	-0.225157	0.006	-0.731357	0	1.19838	0	0	0	0	0	0	0	0	0	0
